<?xml version="1.0" standalone="no"?>
<!DOCTYPE svg PUBLIC "-//W3C//DTD SVG 20010904//EN"
 "http://www.w3.org/TR/2001/REC-SVG-20010904/DTD/svg10.dtd">
<svg version="1.0" xmlns="http://www.w3.org/2000/svg"
 width="1600.000000pt" height="1600.000000pt" viewBox="0 0 1600.000000 1600.000000"
 preserveAspectRatio="xMidYMid meet">

<g transform="translate(0.000000,1600.000000) scale(0.100000,-0.100000)"
fill="#000000" stroke="none">
<path d="M7630 14871 c-69 -5 -138 -11 -155 -14 -16 -4 -93 -11 -171 -16 -77
-6 -178 -17 -225 -25 -46 -8 -118 -19 -159 -25 -117 -17 -199 -31 -275 -48
-38 -9 -99 -22 -135 -29 -122 -24 -463 -114 -545 -143 -92 -33 -245 -84 -279
-92 -21 -5 -48 -16 -60 -24 -11 -8 -27 -15 -34 -15 -8 0 -28 -6 -45 -14 -18
-8 -63 -26 -102 -41 -171 -65 -479 -207 -679 -314 -78 -43 -358 -203 -371
-213 -16 -13 -146 -98 -150 -98 -4 0 -191 -127 -255 -172 -420 -300 -841 -685
-1170 -1067 -30 -35 -62 -72 -70 -80 -59 -63 -289 -358 -352 -451 -10 -14 -44
-63 -77 -110 -33 -47 -70 -101 -81 -120 -11 -19 -38 -62 -59 -95 -50 -76 -248
-422 -285 -495 -15 -30 -31 -62 -36 -70 -25 -42 -152 -317 -195 -420 -15 -36
-33 -78 -41 -95 -7 -16 -20 -49 -29 -72 -39 -109 -47 -130 -60 -160 -8 -17
-15 -39 -15 -48 0 -9 -6 -29 -14 -43 -8 -15 -26 -67 -41 -117 -15 -49 -33
-104 -40 -121 -8 -18 -17 -49 -20 -70 -4 -22 -15 -64 -24 -94 -29 -88 -74
-261 -95 -370 -7 -36 -20 -96 -29 -135 -17 -76 -31 -158 -48 -275 -6 -41 -17
-113 -25 -159 -8 -47 -19 -146 -25 -220 -5 -75 -15 -172 -21 -216 -16 -107
-16 -859 1 -969 6 -43 16 -142 21 -219 6 -76 17 -176 24 -221 8 -44 19 -115
25 -156 18 -121 31 -200 51 -290 10 -47 22 -103 25 -125 3 -22 12 -58 19 -80
8 -22 18 -62 24 -90 16 -75 84 -328 100 -365 5 -14 22 -65 37 -115 15 -49 34
-104 41 -122 8 -17 14 -36 14 -43 0 -7 7 -26 15 -43 13 -30 21 -51 60 -159 9
-24 22 -56 29 -73 8 -16 26 -59 41 -95 61 -148 135 -305 242 -513 19 -38 41
-71 48 -74 8 -2 11 -11 8 -19 -3 -8 1 -22 8 -31 8 -9 23 -33 34 -53 35 -64
135 -233 175 -295 22 -33 49 -76 60 -95 17 -30 48 -76 103 -152 6 -10 22 -33
35 -50 51 -72 229 -308 286 -378 187 -231 513 -573 741 -776 61 -54 112 -100
115 -104 22 -26 383 -307 518 -402 17 -13 40 -29 50 -36 9 -7 40 -27 67 -44
28 -18 55 -36 60 -40 20 -16 86 -58 91 -58 2 0 26 -15 52 -33 47 -33 190 -118
280 -168 55 -29 191 -103 242 -130 19 -10 46 -23 60 -29 14 -5 32 -14 40 -19
8 -5 40 -20 70 -34 30 -14 89 -41 130 -60 41 -19 104 -47 140 -62 36 -14 79
-33 95 -41 28 -13 58 -24 158 -59 23 -8 50 -20 59 -25 10 -5 34 -14 55 -19 21
-5 61 -17 88 -27 28 -10 73 -25 100 -35 28 -9 66 -22 85 -29 96 -33 429 -120
550 -144 36 -7 97 -20 135 -29 162 -36 494 -86 648 -98 67 -5 167 -14 222 -21
136 -17 845 -17 975 0 52 7 154 17 227 22 72 6 163 17 203 25 39 8 88 15 108
15 20 0 69 7 107 16 39 8 101 19 140 25 38 5 83 14 100 19 16 5 64 16 105 24
126 25 361 86 510 132 25 8 65 21 90 28 50 15 91 29 165 57 28 11 56 19 64 19
7 0 27 7 44 15 30 13 51 21 160 60 23 9 56 22 72 29 17 8 59 27 95 41 148 62
412 188 555 265 139 75 347 195 370 212 17 14 146 98 150 98 4 0 191 127 255
172 609 436 1177 1008 1612 1626 13 17 29 40 35 50 55 76 86 122 103 152 11
19 38 62 60 95 61 95 166 275 249 430 75 138 80 149 91 175 5 14 14 32 19 40
19 30 112 235 156 340 15 36 33 79 41 95 7 17 20 49 29 73 39 108 47 129 60
159 8 17 15 38 15 47 0 9 9 33 20 53 11 21 20 47 20 58 0 11 7 33 15 48 8 15
17 45 21 65 4 20 11 46 17 57 5 10 19 51 29 90 10 38 28 104 39 145 32 119 59
230 73 300 7 36 20 97 29 135 27 121 70 389 87 540 41 370 45 434 45 820 0
301 -4 427 -18 550 -9 88 -21 201 -26 250 -17 160 -58 411 -88 550 -9 39 -22
99 -29 135 -12 61 -38 168 -65 270 -6 25 -20 69 -30 98 -11 30 -19 64 -19 75
-1 12 -8 40 -16 62 -16 43 -36 107 -61 195 -8 30 -22 64 -29 75 -8 11 -14 28
-14 38 0 11 -7 33 -15 50 -13 30 -21 51 -60 160 -9 23 -22 56 -29 72 -8 17
-26 59 -41 95 -85 204 -211 462 -329 671 -65 114 -152 262 -186 314 -22 33
-49 76 -60 95 -17 30 -48 76 -103 152 -6 10 -22 33 -35 50 -99 140 -316 419
-371 478 -9 9 -41 45 -71 81 -199 230 -399 430 -675 675 -141 125 -370 304
-543 426 -17 13 -40 29 -50 35 -36 26 -154 103 -157 103 -3 0 -39 24 -82 53
-80 54 -406 243 -503 291 -30 15 -62 31 -70 36 -8 5 -58 29 -110 53 -266 125
-320 148 -435 192 -38 15 -84 33 -102 41 -17 8 -35 14 -40 14 -4 1 -26 9 -48
20 -22 11 -48 19 -57 20 -10 0 -37 8 -60 19 -24 10 -77 29 -118 41 -41 13 -86
27 -100 33 -30 12 -144 43 -224 62 -32 7 -70 18 -85 24 -29 12 -125 34 -241
57 -41 8 -89 19 -105 24 -17 5 -62 14 -100 19 -39 6 -101 17 -140 25 -38 9
-87 16 -107 16 -20 0 -69 7 -108 15 -40 8 -138 20 -219 26 -80 5 -175 14 -211
19 -89 13 -707 20 -860 11z m304 -2064 c9 -48 54 -240 101 -425 46 -185 102
-416 125 -512 24 -96 105 -427 182 -735 76 -308 162 -654 190 -770 45 -185
150 -602 178 -708 48 -183 322 -728 499 -997 209 -315 299 -437 504 -682 108
-129 486 -502 752 -741 105 -95 349 -296 470 -387 288 -218 440 -306 705 -411
140 -55 210 -92 210 -110 0 -7 -13 -8 -37 -4 -21 3 -651 7 -1400 8 l-1363 2 0
25 c0 31 16 132 29 183 l9 37 -770 0 -770 0 5 -23 c7 -27 -7 -55 -18 -37 -4 6
-4 22 -1 36 6 24 6 24 -74 24 -70 0 -80 -2 -78 -16 2 -10 -3 -19 -11 -22 -9
-3 -11 1 -6 17 l6 21 -320 0 c-183 0 -322 -4 -325 -9 -4 -5 -2 -21 3 -35 9
-22 14 -24 46 -19 19 3 35 1 35 -4 0 -16 -24 -33 -47 -33 -20 0 -23 -3 -17
-27 4 -16 13 -42 20 -59 7 -16 9 -35 5 -42 -5 -9 -78 -13 -255 -16 -153 -2
-252 -8 -258 -14 -8 -8 -15 -7 -24 3 -12 11 -199 13 -1138 8 -751 -4 -1125 -2
-1130 5 -6 10 69 49 174 89 35 13 82 33 105 43 22 10 73 32 112 48 260 110
716 456 1183 897 184 173 436 424 509 505 433 485 849 1170 1026 1691 45 132
73 240 355 1384 201 814 428 1731 445 1795 17 66 34 114 39 109 2 -2 11 -44
20 -92z m186 53 c0 -5 -5 -10 -11 -10 -5 0 -7 5 -4 10 3 6 8 10 11 10 2 0 4
-4 4 -10z m125 -40 c3 -5 1 -10 -4 -10 -6 0 -11 5 -11 10 0 6 2 10 4 10 3 0 8
-4 11 -10z m115 -90 c0 -5 -4 -10 -10 -10 -5 0 -10 5 -10 10 0 6 5 10 10 10 6
0 10 -4 10 -10z m247 -106 c-3 -3 -12 -4 -19 -1 -8 3 -5 6 6 6 11 1 17 -2 13
-5z m513 -48 c0 -3 -4 -8 -10 -11 -5 -3 -10 -1 -10 4 0 6 5 11 10 11 6 0 10
-2 10 -4z m-2080 -391 c0 -8 -4 -15 -10 -15 -5 0 -10 7 -10 15 0 8 5 15 10 15
6 0 10 -7 10 -15z m2266 -22 c-10 -10 -19 5 -10 18 6 11 8 11 12 0 2 -7 1 -15
-2 -18z m-2406 -8 c0 -8 -4 -15 -10 -15 -5 0 -10 7 -10 15 0 8 5 15 10 15 6 0
10 -7 10 -15z m-260 -55 c0 -5 -5 -10 -11 -10 -5 0 -7 5 -4 10 3 6 8 10 11 10
2 0 4 -4 4 -10z m110 -50 c0 -5 -4 -10 -10 -10 -5 0 -10 5 -10 10 0 6 5 10 10
10 6 0 10 -4 10 -10z m2675 -10 c3 -5 -1 -10 -9 -10 -9 0 -16 5 -16 10 0 6 4
10 9 10 6 0 13 -4 16 -10z m-2215 -80 c0 -5 -4 -10 -10 -10 -5 0 -10 5 -10 10
0 6 5 10 10 10 6 0 10 -4 10 -10z m-130 -10 c0 -5 -4 -10 -10 -10 -5 0 -10 5
-10 10 0 6 5 10 10 10 6 0 10 -4 10 -10z m-210 -30 c0 -5 -5 -10 -11 -10 -5 0
-7 5 -4 10 3 6 8 10 11 10 2 0 4 -4 4 -10z m2580 -10 c0 -5 -4 -10 -10 -10 -5
0 -10 5 -10 10 0 6 5 10 10 10 6 0 10 -4 10 -10z m-3275 -30 c3 -5 2 -10 -4
-10 -5 0 -13 5 -16 10 -3 6 -2 10 4 10 5 0 13 -4 16 -10z m425 0 c0 -5 -7 -10
-16 -10 -8 0 -12 5 -9 10 3 6 10 10 16 10 5 0 9 -4 9 -10z m680 -10 c0 -5 -4
-10 -10 -10 -5 0 -10 5 -10 10 0 6 5 10 10 10 6 0 10 -4 10 -10z m210 -55 c0
-8 -7 -15 -15 -15 -16 0 -20 12 -8 23 11 12 23 8 23 -8z m850 1 c0 -3 -4 -8
-10 -11 -5 -3 -10 -1 -10 4 0 6 5 11 10 11 6 0 10 -2 10 -4z m990 -6 c0 -5 -7
-10 -16 -10 -8 0 -12 5 -9 10 3 6 10 10 16 10 5 0 9 -4 9 -10z m-2624 -37
c-10 -10 -19 5 -10 18 6 11 8 11 12 0 2 -7 1 -15 -2 -18z m2984 17 c0 -5 -4
-10 -10 -10 -5 0 -10 5 -10 10 0 6 5 10 10 10 6 0 10 -4 10 -10z m-3130 -30
c0 -5 -7 -10 -15 -10 -8 0 -15 5 -15 10 0 6 7 10 15 10 8 0 15 -4 15 -10z
m830 -30 c0 -5 -4 -10 -10 -10 -5 0 -10 5 -10 10 0 6 5 10 10 10 6 0 10 -4 10
-10z m2210 -10 c0 -5 -4 -10 -10 -10 -5 0 -10 5 -10 10 0 6 5 10 10 10 6 0 10
-4 10 -10z m-550 -24 c0 -8 -7 -16 -15 -20 -17 -6 -18 -4 -9 18 8 20 24 21 24
2z m-307 -26 c6 -24 -3 -32 -23 -20 -11 7 -11 11 -1 24 17 20 18 20 24 -4z
m-383 -40 c0 -5 -4 -10 -10 -10 -5 0 -10 5 -10 10 0 6 5 10 10 10 6 0 10 -4
10 -10z m530 3 c0 -5 -4 -15 -10 -23 -11 -18 -25 -7 -17 15 6 15 27 21 27 8z
m-2930 -13 c0 -5 -5 -10 -11 -10 -5 0 -7 5 -4 10 3 6 8 10 11 10 2 0 4 -4 4
-10z m600 0 c0 -5 -4 -10 -10 -10 -5 0 -10 5 -10 10 0 6 5 10 10 10 6 0 10 -4
10 -10z m670 1 c0 -5 -7 -14 -15 -21 -12 -10 -15 -10 -15 2 0 8 3 18 7 21 9
10 23 9 23 -2z m-482 -13 c-6 -18 -28 -21 -28 -4 0 9 7 16 16 16 9 0 14 -5 12
-12z m2462 -20 c0 -16 -3 -19 -11 -11 -6 6 -8 16 -5 22 11 17 16 13 16 -11z
m-132 -27 c3 -8 -1 -12 -9 -9 -7 2 -15 10 -17 17 -3 8 1 12 9 9 7 -2 15 -10
17 -17z m-2624 -22 c-3 -5 -10 -7 -15 -3 -5 3 -7 10 -3 15 3 5 10 7 15 3 5 -3
7 -10 3 -15z m2886 11 c0 -5 -7 -10 -16 -10 -8 0 -12 5 -9 10 3 6 10 10 16 10
5 0 9 -4 9 -10z m-2020 -15 c0 -8 -4 -15 -10 -15 -5 0 -10 7 -10 15 0 8 5 15
10 15 6 0 10 -7 10 -15z m1641 2 c-1 -12 -15 -9 -19 4 -3 6 1 10 8 8 6 -3 11
-8 11 -12z m-2294 -39 c-3 -8 -6 -5 -6 6 -1 11 2 17 5 13 3 -3 4 -12 1 -19z
m273 3 c0 -12 -20 -25 -27 -18 -7 7 6 27 18 27 5 0 9 -4 9 -9z m180 -6 c0 -8
-4 -15 -9 -15 -13 0 -22 16 -14 24 11 11 23 6 23 -9z m1400 -55 c0 -11 -4 -20
-10 -20 -5 0 -10 9 -10 20 0 11 5 20 10 20 6 0 10 -9 10 -20z m780 4 c0 -8 -4
-12 -10 -9 -5 3 -10 10 -10 16 0 5 5 9 10 9 6 0 10 -7 10 -16z m-385 -4 c3 -5
1 -10 -4 -10 -6 0 -11 5 -11 10 0 6 2 10 4 10 3 0 8 -4 11 -10z m215 -15 c0
-8 -4 -15 -10 -15 -5 0 -10 7 -10 15 0 8 5 15 10 15 6 0 10 -7 10 -15z m-1932
-17 c-3 -7 -13 -15 -24 -17 -16 -3 -17 -1 -5 13 16 19 34 21 29 4z m-198 -7
c0 -12 -20 -25 -27 -18 -7 7 6 27 18 27 5 0 9 -4 9 -9z m345 -1 c-3 -5 -10
-10 -16 -10 -5 0 -9 5 -9 10 0 6 7 10 16 10 8 0 12 -4 9 -10z m1815 6 c0 -3
-4 -8 -10 -11 -5 -3 -10 -1 -10 4 0 6 5 11 10 11 6 0 10 -2 10 -4z m-2340 -16
c0 -5 -7 -10 -15 -10 -8 0 -15 5 -15 10 0 6 7 10 15 10 8 0 15 -4 15 -10z
m2820 0 c0 -5 -5 -10 -11 -10 -5 0 -7 5 -4 10 3 6 8 10 11 10 2 0 4 -4 4 -10z
m-3030 -8 c0 -5 -7 -9 -15 -9 -8 0 -15 4 -15 9 0 4 7 8 15 8 8 0 15 -4 15 -8z
m2092 -34 c-7 -7 -12 -8 -12 -2 0 14 12 26 19 19 2 -3 -1 -11 -7 -17z m-2332
8 c0 -3 -4 -8 -10 -11 -5 -3 -10 -1 -10 4 0 6 5 11 10 11 6 0 10 -2 10 -4z
m715 -26 c0 -7 -6 -15 -12 -17 -8 -3 -13 4 -13 17 0 13 5 20 13 18 6 -3 12
-11 12 -18z m-186 -29 c-15 -5 -22 6 -14 19 6 9 10 9 16 -1 5 -8 4 -15 -2 -18z
m2161 15 c0 -3 -4 -8 -10 -11 -5 -3 -10 -1 -10 4 0 6 5 11 10 11 6 0 10 -2 10
-4z m-620 -20 c0 -8 -4 -17 -9 -21 -12 -7 -24 12 -16 25 9 15 25 12 25 -4z
m-1095 -6 c-3 -5 -13 -10 -21 -10 -8 0 -14 5 -14 10 0 6 9 10 21 10 11 0 17
-4 14 -10z m1515 2 c0 -13 -12 -22 -22 -16 -10 6 -1 24 13 24 5 0 9 -4 9 -8z
m-2060 -52 c0 -5 -7 -10 -15 -10 -8 0 -15 5 -15 10 0 6 7 10 15 10 8 0 15 -4
15 -10z m2070 0 c0 -5 -5 -10 -11 -10 -5 0 -7 5 -4 10 3 6 8 10 11 10 2 0 4
-4 4 -10z m-1845 -40 c3 -5 1 -10 -4 -10 -6 0 -11 5 -11 10 0 6 2 10 4 10 3 0
8 -4 11 -10z m1723 -18 c2 -7 -6 -12 -17 -12 -21 0 -27 11 -14 24 9 9 26 2 31
-12z m-1383 -1 c3 -5 1 -12 -5 -16 -5 -3 -10 1 -10 9 0 18 6 21 15 7z m1175
-31 c0 -5 -2 -10 -4 -10 -3 0 -8 5 -11 10 -3 6 -1 10 4 10 6 0 11 -4 11 -10z
m-2270 -10 c0 -5 -5 -10 -11 -10 -5 0 -7 5 -4 10 3 6 8 10 11 10 2 0 4 -4 4
-10z m3115 -30 c-3 -5 -10 -10 -16 -10 -5 0 -9 5 -9 10 0 6 7 10 16 10 8 0 12
-4 9 -10z m-2825 -10 c0 -5 -4 -10 -10 -10 -5 0 -10 5 -10 10 0 6 5 10 10 10
6 0 10 -4 10 -10z m2460 -10 c0 -5 -2 -10 -4 -10 -3 0 -8 5 -11 10 -3 6 -1 10
4 10 6 0 11 -4 11 -10z m-1940 -20 c0 -5 -4 -10 -10 -10 -5 0 -10 5 -10 10 0
6 5 10 10 10 6 0 10 -4 10 -10z m-330 -4 c0 -3 -4 -8 -10 -11 -5 -3 -10 -1
-10 4 0 6 5 11 10 11 6 0 10 -2 10 -4z m110 0 c0 -3 -4 -8 -10 -11 -5 -3 -10
-1 -10 4 0 6 5 11 10 11 6 0 10 -2 10 -4z m2285 -45 c3 -5 1 -12 -5 -16 -5 -3
-10 1 -10 9 0 18 6 21 15 7z m116 -28 c-12 -20 -14 -14 -5 12 4 9 9 14 11 11
3 -2 0 -13 -6 -23z m-2791 3 c0 -3 -4 -8 -10 -11 -5 -3 -10 -1 -10 4 0 6 5 11
10 11 6 0 10 -2 10 -4z m440 -66 c0 -5 -5 -10 -11 -10 -5 0 -7 5 -4 10 3 6 8
10 11 10 2 0 4 -4 4 -10z m-250 -4 c0 -11 -19 -15 -25 -6 -3 5 1 10 9 10 9 0
16 -2 16 -4z m1977 -23 c-3 -3 -11 -2 -17 2 -9 6 -9 10 1 16 14 8 27 -7 16
-18z m-2097 -13 c0 -5 -4 -10 -10 -10 -5 0 -10 5 -10 10 0 6 5 10 10 10 6 0
10 -4 10 -10z m-130 -20 c0 -5 -4 -10 -9 -10 -6 0 -13 5 -16 10 -3 6 1 10 9
10 9 0 16 -4 16 -10z m2710 0 c0 -5 -4 -10 -10 -10 -5 0 -10 5 -10 10 0 6 5
10 10 10 6 0 10 -4 10 -10z m-590 -40 c0 -5 -7 -10 -15 -10 -8 0 -15 5 -15 10
0 6 7 10 15 10 8 0 15 -4 15 -10z m240 -10 c0 -5 -2 -10 -4 -10 -3 0 -8 5 -11
10 -3 6 -1 10 4 10 6 0 11 -4 11 -10z m170 -34 c0 -15 -18 -31 -26 -23 -7 7 7
37 17 37 5 0 9 -6 9 -14z m1230 -6 c0 -5 -5 -10 -11 -10 -5 0 -7 5 -4 10 3 6
8 10 11 10 2 0 4 -4 4 -10z m-1480 -20 c0 -5 -2 -10 -4 -10 -3 0 -8 5 -11 10
-3 6 -1 10 4 10 6 0 11 -4 11 -10z m325 -10 c3 -5 1 -10 -4 -10 -6 0 -11 5
-11 10 0 6 2 10 4 10 3 0 8 -4 11 -10z m-445 -10 c0 -5 -5 -10 -11 -10 -5 0
-7 5 -4 10 3 6 8 10 11 10 2 0 4 -4 4 -10z m267 -42 c-3 -8 -6 -5 -6 6 -1 11
2 17 5 13 3 -3 4 -12 1 -19z m243 -8 c0 -5 -7 -10 -16 -10 -8 0 -12 5 -9 10 3
6 10 10 16 10 5 0 9 -4 9 -10z m-2600 -10 c0 -5 -5 -10 -11 -10 -5 0 -7 5 -4
10 3 6 8 10 11 10 2 0 4 -4 4 -10z m310 -6 c0 -2 -9 -4 -21 -4 -11 0 -18 4
-14 10 5 8 35 3 35 -6z m2540 6 c0 -5 -4 -10 -10 -10 -5 0 -10 5 -10 10 0 6 5
10 10 10 6 0 10 -4 10 -10z m585 -10 c3 -5 1 -10 -4 -10 -6 0 -11 5 -11 10 0
6 2 10 4 10 3 0 8 -4 11 -10z m-3545 -41 c0 -6 -4 -7 -10 -4 -5 3 -10 11 -10
16 0 6 5 7 10 4 6 -3 10 -11 10 -16z m-235 1 c3 -5 1 -10 -4 -10 -6 0 -11 5
-11 10 0 6 2 10 4 10 3 0 8 -4 11 -10z m3040 -10 c3 -5 -1 -10 -10 -10 -9 0
-13 5 -10 10 3 6 8 10 10 10 2 0 7 -4 10 -10z m245 -34 c0 -3 -4 -8 -10 -11
-5 -3 -10 -1 -10 4 0 6 5 11 10 11 6 0 10 -2 10 -4z m265 -16 c-3 -5 -11 -10
-16 -10 -6 0 -7 5 -4 10 3 6 11 10 16 10 6 0 7 -4 4 -10z m-3190 -20 c3 -5 -1
-10 -10 -10 -9 0 -13 5 -10 10 3 6 8 10 10 10 2 0 7 -4 10 -10z m2785 -19 c0
-12 -20 -25 -27 -18 -7 7 6 27 18 27 5 0 9 -4 9 -9z m-2493 -17 c-3 -3 -12 -4
-19 -1 -8 3 -5 6 6 6 11 1 17 -2 13 -5z m199 -31 c-10 -10 -19 5 -10 18 6 11
8 11 12 0 2 -7 1 -15 -2 -18z m166 -5 c-7 -7 -12 -8 -12 -2 0 14 12 26 19 19
2 -3 -1 -11 -7 -17z m1513 2 c3 -5 1 -10 -4 -10 -6 0 -11 5 -11 10 0 6 2 10 4
10 3 0 8 -4 11 -10z m-2695 -60 c0 -5 -2 -10 -4 -10 -3 0 -8 5 -11 10 -3 6 -1
10 4 10 6 0 11 -4 11 -10z m3660 -11 c0 -5 -7 -9 -15 -9 -15 0 -20 12 -9 23 8
8 24 -1 24 -14z m-500 -9 c0 -5 -7 -10 -16 -10 -8 0 -12 5 -9 10 3 6 10 10 16
10 5 0 9 -4 9 -10z m280 0 c0 -12 -28 -25 -36 -17 -9 9 6 27 22 27 8 0 14 -5
14 -10z m-168 -42 c-7 -7 -12 -8 -12 -2 0 14 12 26 19 19 2 -3 -1 -11 -7 -17z
m238 2 c0 -5 -5 -10 -11 -10 -5 0 -7 5 -4 10 3 6 8 10 11 10 2 0 4 -4 4 -10z
m-18 -117 c22 -20 23 -33 3 -33 -12 0 -35 28 -35 44 0 11 13 6 32 -11z m-3270
-25 c-7 -7 -12 -8 -12 -2 0 6 3 14 7 17 3 4 9 5 12 2 2 -3 -1 -11 -7 -17z
m418 13 c0 -6 -4 -13 -10 -16 -5 -3 -10 1 -10 9 0 9 5 16 10 16 6 0 10 -4 10
-9z m3124 -16 c-4 -8 -12 -15 -20 -15 -17 0 -18 17 -1 23 22 9 27 7 21 -8z
m-463 -18 c-13 -13 -26 -3 -16 12 3 6 11 8 17 5 6 -4 6 -10 -1 -17z m-2781 3
c0 -5 -4 -10 -10 -10 -5 0 -10 5 -10 10 0 6 5 10 10 10 6 0 10 -4 10 -10z
m2437 -36 c-3 -3 -12 -4 -19 -1 -8 3 -5 6 6 6 11 1 17 -2 13 -5z m-2217 -19
c0 -8 -4 -15 -10 -15 -5 0 -7 7 -4 15 4 8 8 15 10 15 2 0 4 -7 4 -15z m260
-15 c0 -5 -4 -10 -10 -10 -5 0 -10 5 -10 10 0 6 5 10 10 10 6 0 10 -4 10 -10z
m2600 -10 c0 -5 -4 -10 -10 -10 -5 0 -10 5 -10 10 0 6 5 10 10 10 6 0 10 -4
10 -10z m-156 -35 c-4 -8 -12 -15 -19 -15 -7 0 -15 -5 -17 -12 -3 -7 -10 -8
-17 -3 -11 6 -8 12 10 26 29 23 50 24 43 4z m-3304 -5 c0 -5 -5 -10 -11 -10
-5 0 -7 5 -4 10 3 6 8 10 11 10 2 0 4 -4 4 -10z m790 -10 c0 -5 -7 -10 -15
-10 -8 0 -15 5 -15 10 0 6 7 10 15 10 8 0 15 -4 15 -10z m2370 0 c0 -5 -7 -10
-15 -10 -8 0 -15 5 -15 10 0 6 7 10 15 10 8 0 15 -4 15 -10z m-2791 -26 c-14
-18 -24 -11 -15 11 3 9 11 13 16 10 8 -5 7 -11 -1 -21z m2281 -18 c-15 -15
-33 4 -19 20 10 12 14 12 20 2 5 -7 4 -17 -1 -22z m160 14 c0 -5 -4 -10 -10
-10 -5 0 -10 5 -10 10 0 6 5 10 10 10 6 0 10 -4 10 -10z m710 -7 c0 -13 2 -15
8 -5 7 10 12 8 26 -7 16 -18 16 -19 -14 -23 -34 -5 -56 13 -46 37 8 21 26 19
26 -2z m-3620 -7 c0 -3 -4 -8 -10 -11 -5 -3 -10 -1 -10 4 0 6 5 11 10 11 6 0
10 -2 10 -4z m600 -26 c0 -13 -5 -18 -15 -14 -16 7 -19 17 -8 27 12 13 23 7
23 -13z m-210 -20 c0 -5 -4 -10 -10 -10 -5 0 -10 5 -10 10 0 6 5 10 10 10 6 0
10 -4 10 -10z m3460 -10 c0 -5 -4 -10 -10 -10 -5 0 -10 5 -10 10 0 6 5 10 10
10 6 0 10 -4 10 -10z m-390 -46 c0 -9 -11 -14 -30 -14 -33 0 -36 4 -18 24 15
16 48 9 48 -10z m-300 -4 c8 -5 11 -10 5 -10 -5 0 -17 5 -25 10 -8 5 -10 10
-5 10 6 0 17 -5 25 -10z m-2670 -19 c0 -6 -4 -13 -10 -16 -5 -3 -10 1 -10 9 0
9 5 16 10 16 6 0 10 -4 10 -9z m206 -12 c3 -6 2 -15 -2 -19 -12 -12 -38 5 -30
19 9 14 23 14 32 0z m2278 -15 c20 -8 11 -24 -15 -24 -19 0 -25 11 -12 23 8 8
8 8 27 1z m-2709 -14 c-3 -5 -11 -10 -16 -10 -6 0 -7 5 -4 10 3 6 11 10 16 10
6 0 7 -4 4 -10z m135 -30 c0 -5 -4 -10 -10 -10 -5 0 -10 5 -10 10 0 6 5 10 10
10 6 0 10 -4 10 -10z m540 0 c0 -5 -7 -7 -15 -4 -8 4 -15 8 -15 10 0 2 7 4 15
4 8 0 15 -4 15 -10z m2840 -11 c0 -5 -7 -9 -15 -9 -15 0 -20 12 -9 23 8 8 24
-1 24 -14z m180 11 c0 -5 -4 -10 -10 -10 -5 0 -10 5 -10 10 0 6 5 10 10 10 6
0 10 -4 10 -10z m-3790 -51 c0 -5 -4 -9 -10 -9 -5 0 -10 7 -10 16 0 8 5 12 10
9 6 -3 10 -10 10 -16z m2734 12 c3 -4 3 -11 0 -14 -8 -8 -34 3 -34 14 0 11 27
12 34 0z m-2144 -16 c0 -8 -7 -15 -16 -15 -14 0 -14 3 -4 15 7 8 14 15 16 15
2 0 4 -7 4 -15z m120 11 c0 -2 -7 -7 -16 -10 -8 -3 -12 -2 -9 4 6 10 25 14 25
6z m149 -22 c-6 -7 -17 -10 -25 -7 -23 8 -16 21 11 21 20 0 23 -3 14 -14z
m1764 -35 c-8 -8 -14 -6 -22 9 -13 25 -2 37 18 17 11 -11 12 -18 4 -26z
m-2203 21 c0 -5 -4 -10 -10 -10 -5 0 -10 5 -10 10 0 6 5 10 10 10 6 0 10 -4
10 -10z m464 -21 c-7 -11 -44 -12 -44 -1 0 4 5 13 12 20 13 13 42 -4 32 -19z
m2014 9 c-3 -7 -11 -13 -18 -13 -7 0 -15 6 -17 13 -3 7 4 12 17 12 13 0 20 -5
18 -12z m-3282 -55 c-10 -10 -19 5 -10 18 6 11 8 11 12 0 2 -7 1 -15 -2 -18z
m2974 17 c0 -5 -5 -10 -11 -10 -5 0 -7 5 -4 10 3 6 8 10 11 10 2 0 4 -4 4 -10z
m1240 1 c0 -5 -7 -11 -15 -15 -15 -5 -20 5 -8 17 9 10 23 9 23 -2z m-750 -5
c0 -11 -19 -15 -25 -6 -3 5 1 10 9 10 9 0 16 -2 16 -4z m-2406 -21 c-4 -8 -10
-15 -15 -15 -5 0 -9 7 -9 15 0 8 7 15 15 15 9 0 12 -6 9 -15z m-494 -5 c0 -5
-4 -10 -10 -10 -5 0 -10 5 -10 10 0 6 5 10 10 10 6 0 10 -4 10 -10z m2440 -7
c0 -5 -5 -15 -10 -23 -8 -12 -10 -11 -10 8 0 12 5 22 10 22 6 0 10 -3 10 -7z
m-2053 -19 c2 -7 -6 -11 -22 -10 -14 0 -25 7 -25 14 0 16 42 12 47 -4z m2183
0 c0 -8 -4 -12 -10 -9 -5 3 -10 10 -10 16 0 5 5 9 10 9 6 0 10 -7 10 -16z
m-1994 -21 c-10 -10 -19 5 -10 18 6 11 8 11 12 0 2 -7 1 -15 -2 -18z m2481 1
c-9 -9 -28 6 -21 18 4 6 10 6 17 -1 6 -6 8 -13 4 -17z m113 11 c0 -8 -7 -15
-15 -15 -26 0 -18 20 13 29 1 1 2 -6 2 -14z m-3023 -1 c-3 -3 -12 -4 -19 -1
-8 3 -5 6 6 6 11 1 17 -2 13 -5z m-357 -34 c0 -5 -7 -10 -16 -10 -8 0 -12 5
-9 10 3 6 10 10 16 10 5 0 9 -4 9 -10z m2870 -6 c0 -8 -5 -12 -10 -9 -6 4 -8
11 -5 16 9 14 15 11 15 -7z m-3130 -45 c0 -11 -4 -17 -10 -14 -5 3 -10 13 -10
21 0 8 5 14 10 14 6 0 10 -9 10 -21z m3280 1 c0 -5 -4 -10 -10 -10 -5 0 -10 5
-10 10 0 6 5 10 10 10 6 0 10 -4 10 -10z m-2425 -10 c-3 -5 -13 -10 -21 -10
-8 0 -12 5 -9 10 3 6 13 10 21 10 8 0 12 -4 9 -10z m-705 -9 c0 -6 -4 -13 -10
-16 -5 -3 -10 1 -10 9 0 9 5 16 10 16 6 0 10 -4 10 -9z m240 -16 c0 -8 -4 -15
-10 -15 -5 0 -10 7 -10 15 0 8 5 15 10 15 6 0 10 -7 10 -15z m630 -4 c0 -4 -6
-8 -14 -8 -8 0 -12 6 -9 14 5 13 23 9 23 -6z m1930 9 c0 -5 -7 -10 -15 -10 -8
0 -15 5 -15 10 0 6 7 10 15 10 8 0 15 -4 15 -10z m-3310 -10 c0 -5 -4 -10 -10
-10 -5 0 -10 5 -10 10 0 6 5 10 10 10 6 0 10 -4 10 -10z m1050 -5 c0 -9 -6
-12 -15 -9 -8 4 -12 10 -9 15 8 14 24 10 24 -6z m2290 -10 c0 -8 -4 -15 -9
-15 -13 0 -22 16 -14 24 11 11 23 6 23 -9z m-3080 1 c0 -3 -4 -8 -10 -11 -5
-3 -10 -1 -10 4 0 6 5 11 10 11 6 0 10 -2 10 -4z m3820 -6 c0 -5 -2 -10 -4
-10 -3 0 -8 5 -11 10 -3 6 -1 10 4 10 6 0 11 -4 11 -10z m-3110 -50 c0 -4 -9
-10 -20 -13 -23 -6 -38 12 -20 23 14 9 40 2 40 -10z m2850 11 c0 -6 -4 -13
-10 -16 -5 -3 -10 1 -10 9 0 9 5 16 10 16 6 0 10 -4 10 -9z m-3180 -42 c0 -5
-4 -9 -10 -9 -5 0 -10 7 -10 16 0 8 5 12 10 9 6 -3 10 -10 10 -16z m490 -19
c0 -11 -7 -20 -15 -20 -15 0 -21 21 -8 33 12 13 23 7 23 -13z m2610 10 c8 -5
11 -12 7 -16 -4 -4 -15 0 -24 9 -18 18 -8 23 17 7z m-3440 -20 c0 -5 -2 -10
-4 -10 -3 0 -8 5 -11 10 -3 6 -1 10 4 10 6 0 11 -4 11 -10z m3180 0 c0 -5 -4
-10 -10 -10 -5 0 -10 5 -10 10 0 6 5 10 10 10 6 0 10 -4 10 -10z m-130 -20 c0
-5 -4 -10 -9 -10 -6 0 -13 5 -16 10 -3 6 1 10 9 10 9 0 16 -4 16 -10z m1274
-15 c-4 -8 -8 -15 -10 -15 -2 0 -4 7 -4 15 0 8 4 15 10 15 5 0 7 -7 4 -15z
m-4434 -19 c0 -20 -19 -31 -32 -18 -6 6 -7 15 -4 21 10 16 36 13 36 -3z m838
-8 c-3 -7 -13 -15 -24 -17 -16 -3 -17 -1 -5 13 16 19 34 21 29 4z m-318 -2 c0
-3 -4 -8 -10 -11 -5 -3 -10 -1 -10 4 0 6 5 11 10 11 6 0 10 -2 10 -4z m650
-16 c0 -5 -4 -10 -10 -10 -5 0 -10 5 -10 10 0 6 5 10 10 10 6 0 10 -4 10 -10z
m2126 -17 c-10 -10 -19 5 -10 18 6 11 8 11 12 0 2 -7 1 -15 -2 -18z m414 -13
c-8 -5 -17 -7 -19 -4 -3 3 1 9 9 14 8 5 17 7 19 4 3 -3 -1 -9 -9 -14z m360 6
c0 -3 -4 -8 -10 -11 -5 -3 -10 -1 -10 4 0 6 5 11 10 11 6 0 10 -2 10 -4z
m-4176 -37 c-3 -5 -10 -7 -15 -3 -5 3 -7 10 -3 15 3 5 10 7 15 3 5 -3 7 -10 3
-15z m761 1 c3 -5 -3 -10 -15 -10 -12 0 -18 5 -15 10 3 6 10 10 15 10 5 0 12
-4 15 -10z m240 -10 c3 -5 -1 -10 -10 -10 -9 0 -13 5 -10 10 3 6 8 10 10 10 2
0 7 -4 10 -10z m2605 6 c0 -11 -19 -15 -25 -6 -3 5 1 10 9 10 9 0 16 -2 16 -4z
m-3216 -37 c-5 -9 -34 -13 -34 -5 0 2 3 12 6 20 5 13 9 14 20 5 8 -6 11 -15 8
-20z m176 23 c0 -13 -12 -22 -22 -16 -10 6 -1 24 13 24 5 0 9 -4 9 -8z m565
-2 c3 -6 -1 -13 -10 -16 -19 -8 -30 0 -20 15 8 14 22 14 30 1z m-870 -10 c3
-6 -4 -10 -17 -10 -18 0 -20 2 -8 10 19 12 18 12 25 0z m3662 -36 c2 -6 -5
-14 -16 -17 -24 -6 -31 0 -24 19 6 17 34 15 40 -2z m-457 2 c0 -3 -4 -8 -10
-11 -5 -3 -10 -1 -10 4 0 6 5 11 10 11 6 0 10 -2 10 -4z m80 -6 c0 -5 -4 -10
-10 -10 -5 0 -10 5 -10 10 0 6 5 10 10 10 6 0 10 -4 10 -10z m140 -36 c0 -18
-8 -18 -26 1 -19 19 -8 41 12 24 8 -6 14 -18 14 -25z m-2770 -5 c0 -5 -7 -9
-15 -9 -15 0 -20 12 -9 23 8 8 24 -1 24 -14z m2510 1 c0 -5 -5 -10 -11 -10 -5
0 -7 5 -4 10 3 6 8 10 11 10 2 0 4 -4 4 -10z m-3370 -10 c0 -5 -7 -10 -15 -10
-8 0 -15 5 -15 10 0 6 7 10 15 10 8 0 15 -4 15 -10z m430 -6 c0 -8 -4 -12 -10
-9 -5 3 -10 10 -10 16 0 5 5 9 10 9 6 0 10 -7 10 -16z m-745 -4 c-3 -5 -11
-10 -16 -10 -6 0 -7 5 -4 10 3 6 11 10 16 10 6 0 7 -4 4 -10z m1416 -13 c-13
-13 -26 -3 -16 12 3 6 11 8 17 5 6 -4 6 -10 -1 -17z m-411 -2 c0 -8 -7 -15
-15 -15 -16 0 -20 12 -8 23 11 12 23 8 23 -8z m2670 11 c0 -3 -4 -8 -10 -11
-5 -3 -10 -1 -10 4 0 6 5 11 10 11 6 0 10 -2 10 -4z m175 -6 c3 -5 1 -10 -4
-10 -6 0 -11 5 -11 10 0 6 2 10 4 10 3 0 8 -4 11 -10z m405 -10 c0 -5 -2 -10
-4 -10 -3 0 -8 5 -11 10 -3 6 -1 10 4 10 6 0 11 -4 11 -10z m140 0 c0 -5 -4
-10 -10 -10 -5 0 -10 5 -10 10 0 6 5 10 10 10 6 0 10 -4 10 -10z m-3120 -9 c0
-12 -20 -25 -27 -18 -7 7 6 27 18 27 5 0 9 -4 9 -9z m-1150 -20 c0 -6 -4 -13
-10 -16 -5 -3 -10 1 -10 9 0 9 5 16 10 16 6 0 10 -4 10 -9z m1256 -30 c-12
-19 -24 -12 -19 10 4 13 9 17 15 11 6 -6 7 -15 4 -21z m2361 23 c-3 -3 -12 -4
-19 -1 -8 3 -5 6 6 6 11 1 17 -2 13 -5z m1033 -14 c0 -5 -2 -10 -4 -10 -3 0
-8 5 -11 10 -3 6 -1 10 4 10 6 0 11 -4 11 -10z m-4240 -30 c0 -13 -7 -20 -20
-20 -23 0 -26 10 -8 28 18 18 28 15 28 -8z m3450 10 c0 -5 -9 -10 -21 -10 -11
0 -17 5 -14 10 3 6 13 10 21 10 8 0 14 -4 14 -10z m-210 -20 c0 -5 -5 -10 -11
-10 -5 0 -7 5 -4 10 3 6 8 10 11 10 2 0 4 -4 4 -10z m-2884 -21 c7 -12 -15
-31 -28 -23 -4 3 -8 12 -8 20 0 17 26 19 36 3z m174 3 c0 -13 -12 -22 -22 -16
-10 6 -1 24 13 24 5 0 9 -4 9 -8z m-1190 -12 c0 -5 -5 -10 -11 -10 -5 0 -7 5
-4 10 3 6 8 10 11 10 2 0 4 -4 4 -10z m4010 -20 c0 -5 -7 -7 -15 -4 -8 4 -12
10 -9 15 6 11 24 2 24 -11z m-3860 0 c0 -5 -4 -10 -10 -10 -5 0 -10 5 -10 10
0 6 5 10 10 10 6 0 10 -4 10 -10z m708 -18 c2 -7 -3 -12 -12 -12 -9 0 -16 7
-16 16 0 17 22 14 28 -4z m527 8 c3 -6 -1 -13 -10 -16 -19 -8 -30 0 -20 15 8
14 22 14 30 1z m3065 -19 c0 -6 -4 -13 -10 -16 -5 -3 -10 1 -10 9 0 9 5 16 10
16 6 0 10 -4 10 -9z m-3942 -13 c19 -19 14 -30 -10 -26 -13 2 -24 11 -26 21
-4 20 18 23 36 5z m-583 -28 c3 -5 1 -10 -4 -10 -6 0 -11 5 -11 10 0 6 2 10 4
10 3 0 8 -4 11 -10z m4860 0 c3 -5 -1 -10 -9 -10 -9 0 -16 5 -16 10 0 6 4 10
9 10 6 0 13 -4 16 -10z m-4052 -7 c8 -7 -11 -33 -24 -33 -5 0 -9 9 -9 20 0 19
20 27 33 13z m-673 -13 c0 -5 -4 -10 -10 -10 -5 0 -10 5 -10 10 0 6 5 10 10
10 6 0 10 -4 10 -10z m940 -35 c0 -9 -6 -12 -15 -9 -8 4 -15 10 -15 15 0 5 7
9 15 9 8 0 15 -7 15 -15z m2975 5 c3 -5 -1 -10 -9 -10 -8 0 -18 5 -21 10 -3 6
1 10 9 10 8 0 18 -4 21 -10z m-3694 -43 c-8 -8 -11 -7 -11 4 0 9 3 19 7 23 4
4 9 2 11 -4 3 -7 -1 -17 -7 -23z m129 18 c0 -8 -7 -15 -15 -15 -16 0 -20 12
-8 23 11 12 23 8 23 -8z m4200 11 c0 -3 -4 -8 -10 -11 -5 -3 -10 -1 -10 4 0 6
5 11 10 11 6 0 10 -2 10 -4z m-3350 -41 c0 -8 -7 -15 -16 -15 -14 0 -14 3 -4
15 7 8 14 15 16 15 2 0 4 -7 4 -15z m-610 -4 c0 -12 -20 -25 -27 -18 -7 7 6
27 18 27 5 0 9 -4 9 -9z m494 -47 c4 -10 1 -14 -6 -12 -15 5 -23 28 -10 28 5
0 13 -7 16 -16z m3556 -8 c0 -3 -4 -8 -10 -11 -5 -3 -10 -1 -10 4 0 6 5 11 10
11 6 0 10 -2 10 -4z m-4200 -46 c0 -5 -5 -10 -11 -10 -5 0 -7 5 -4 10 3 6 8
10 11 10 2 0 4 -4 4 -10z m30 -30 c0 -5 -2 -10 -4 -10 -3 0 -8 5 -11 10 -3 6
-1 10 4 10 6 0 11 -4 11 -10z m497 -16 c-9 -9 -28 6 -21 18 4 6 10 6 17 -1 6
-6 8 -13 4 -17z m-336 -7 c-13 -13 -26 -3 -16 12 3 6 11 8 17 5 6 -4 6 -10 -1
-17z m-511 -17 c0 -5 -2 -10 -4 -10 -3 0 -8 5 -11 10 -3 6 -1 10 4 10 6 0 11
-4 11 -10z m3945 -18 c-3 -3 -11 0 -18 7 -9 10 -8 11 6 5 10 -3 15 -9 12 -12z
m145 -3 c0 -6 -4 -7 -10 -4 -5 3 -10 11 -10 16 0 6 5 7 10 4 6 -3 10 -11 10
-16z m-3123 -21 c-3 -8 -6 -5 -6 6 -1 11 2 17 5 13 3 -3 4 -12 1 -19z m-561
-17 c-4 -5 -13 -8 -22 -4 -11 4 -12 8 -3 20 14 16 36 2 25 -16z m587 -7 c11
-11 -3 -24 -18 -18 -8 4 -12 10 -9 15 6 11 18 12 27 3z m-738 -44 c3 -5 -1
-10 -10 -10 -9 0 -13 5 -10 10 3 6 8 10 10 10 2 0 7 -4 10 -10z m4725 -34 c0
-3 -4 -8 -10 -11 -5 -3 -10 -1 -10 4 0 6 5 11 10 11 6 0 10 -2 10 -4z m-4390
-31 c0 -8 -4 -15 -10 -15 -5 0 -10 7 -10 15 0 8 5 15 10 15 6 0 10 -7 10 -15z
m210 -50 c-7 -8 -16 -12 -21 -9 -13 8 -1 24 18 24 13 0 13 -3 3 -15z m3960
-25 c0 -5 -2 -10 -4 -10 -3 0 -8 5 -11 10 -3 6 -1 10 4 10 6 0 11 -4 11 -10z
m-4260 -40 c0 -5 -8 -10 -17 -10 -15 0 -16 2 -3 10 19 12 20 12 20 0z m3805
-80 c3 -5 -1 -10 -10 -10 -9 0 -13 5 -10 10 3 6 8 10 10 10 2 0 7 -4 10 -10z
m-3535 -25 c0 -8 -2 -15 -4 -15 -2 0 -6 7 -10 15 -3 8 -1 15 4 15 6 0 10 -7
10 -15z m3625 -65 c-3 -5 -11 -10 -16 -10 -6 0 -7 5 -4 10 3 6 11 10 16 10 6
0 7 -4 4 -10z m-65 -70 c0 -5 -4 -10 -10 -10 -5 0 -10 5 -10 10 0 6 5 10 10
10 6 0 10 -4 10 -10z m-3840 -50 c0 -5 -5 -10 -11 -10 -5 0 -7 5 -4 10 3 6 8
10 11 10 2 0 4 -4 4 -10z m4070 -50 c0 -5 -5 -10 -11 -10 -5 0 -7 5 -4 10 3 6
8 10 11 10 2 0 4 -4 4 -10z m240 -240 c0 -5 -2 -10 -4 -10 -3 0 -8 5 -11 10
-3 6 -1 10 4 10 6 0 11 -4 11 -10z m-5330 -774 c0 -2 -7 -7 -16 -10 -8 -3 -12
-2 -9 4 6 10 25 14 25 6z m-270 -136 c0 -5 -4 -10 -10 -10 -5 0 -10 5 -10 10
0 6 5 10 10 10 6 0 10 -4 10 -10z m-80 -110 c0 -5 -7 -10 -16 -10 -8 0 -12 5
-9 10 3 6 10 10 16 10 5 0 9 -4 9 -10z m2475 -210 c-29 -10 -48 -1 -34 16 9
11 16 11 32 2 21 -11 21 -11 2 -18z m185 15 c0 -8 -4 -15 -10 -15 -5 0 -7 7
-4 15 4 8 8 15 10 15 2 0 4 -7 4 -15z m0 -45 c0 -5 -4 -10 -10 -10 -5 0 -10 5
-10 10 0 6 5 10 10 10 6 0 10 -4 10 -10z m-282 -42 c-2 -6 -14 -12 -26 -13
-24 -2 -30 10 -9 18 22 10 39 7 35 -5z m377 -18 c-3 -5 -12 -10 -18 -10 -7 0
-6 4 3 10 19 12 23 12 15 0z m1161 1 c-3 -5 -15 -7 -26 -4 -28 7 -25 13 6 13
14 0 23 -4 20 -9z m-1376 -11 c0 -5 -9 -10 -21 -10 -11 0 -17 5 -14 10 3 6 13
10 21 10 8 0 14 -4 14 -10z m1464 -17 c19 -9 33 -20 30 -24 -2 -4 1 -11 7 -15
8 -4 9 -3 5 4 -12 20 15 13 68 -18 65 -38 74 -46 118 -100 53 -66 104 -166
123 -240 25 -96 22 -419 -5 -610 -6 -36 -12 -87 -15 -115 -7 -65 -31 -205 -56
-325 -39 -192 -57 -276 -67 -315 -6 -22 -25 -105 -42 -185 -17 -83 -43 -172
-60 -208 -17 -36 -30 -70 -30 -78 0 -8 -4 -14 -9 -14 -10 0 -23 29 -17 38 2 4
7 201 10 437 7 460 5 473 -39 315 -24 -87 -121 -416 -150 -510 -13 -41 -29
-95 -35 -120 -18 -70 -63 -214 -70 -223 -9 -11 -71 4 -64 15 3 5 12 7 19 4 23
-8 25 20 9 131 -8 59 -20 164 -25 233 -5 69 -15 190 -22 270 l-13 145 -16 -65
c-17 -67 -168 -812 -194 -955 -19 -109 -49 -218 -61 -222 -10 -4 -36 107 -48
202 -4 28 -18 111 -31 185 -14 74 -32 171 -40 215 -8 44 -23 122 -34 172 -11
51 -20 95 -20 97 0 2 -8 2 -17 0 -20 -5 -51 11 -41 21 3 3 15 7 27 8 27 2 27
18 0 143 -32 149 -38 185 -38 237 -1 54 -26 67 -37 20 -3 -16 -11 -44 -16 -63
-6 -19 -11 -49 -10 -67 1 -17 -6 -54 -14 -80 -8 -26 -19 -75 -24 -108 -5 -33
-13 -78 -19 -100 -5 -22 -17 -76 -27 -120 -28 -134 -35 -156 -44 -150 -14 9
-36 91 -71 259 -17 83 -44 214 -60 291 -54 257 -69 329 -88 430 -11 55 -23
118 -27 140 l-8 40 -7 -60 c-14 -110 -30 -279 -34 -344 -2 -35 -8 -107 -13
-160 -5 -53 -9 -121 -9 -153 1 -55 -17 -98 -34 -81 -11 11 -93 261 -124 379
-14 55 -30 108 -35 119 -5 11 -16 55 -24 98 -9 44 -18 82 -21 86 -10 16 -54
333 -60 431 -3 58 -2 154 4 213 9 94 15 118 46 176 78 148 255 296 322 270 15
-5 32 -8 40 -5 7 3 13 1 13 -5 0 -6 59 -8 173 -5 94 3 217 5 272 5 55 -1 136
0 180 1 185 5 503 2 538 -5 30 -6 37 -4 37 8 0 9 -8 18 -17 20 -10 3 -13 5 -6
6 7 0 28 -6 47 -16z m-1519 -3 c-3 -5 -13 -10 -21 -10 -8 0 -14 5 -14 10 0 6
9 10 21 10 11 0 17 -4 14 -10z m-925 -69 c0 -6 -4 -13 -10 -16 -5 -3 -10 1
-10 9 0 9 5 16 10 16 6 0 10 -4 10 -9z m340 -1 c0 -5 -7 -10 -15 -10 -8 0 -15
5 -15 10 0 6 7 10 15 10 8 0 15 -4 15 -10z m3560 -39 c0 -12 -20 -25 -27 -18
-7 7 6 27 18 27 5 0 9 -4 9 -9z m-4185 -21 c-3 -5 -10 -10 -16 -10 -5 0 -9 5
-9 10 0 6 7 10 16 10 8 0 12 -4 9 -10z m205 -10 c0 -5 -4 -10 -10 -10 -5 0
-10 5 -10 10 0 6 5 10 10 10 6 0 10 -4 10 -10z m428 -10 c-11 -18 -28 -27 -28
-16 0 6 30 36 36 36 2 0 -1 -9 -8 -20z m282 -24 c0 -6 -4 -5 -9 3 -5 8 -17 11
-32 7 -23 -7 -23 -6 -5 8 20 16 46 6 46 -18z m-352 10 c-7 -8 -15 -12 -17 -11
-5 6 10 25 20 25 5 0 4 -6 -3 -14z m-143 -26 c3 -5 -1 -10 -9 -10 -9 0 -16 5
-16 10 0 6 4 10 9 10 6 0 13 -4 16 -10z m335 -56 c0 -8 -4 -12 -10 -9 -5 3
-10 10 -10 16 0 5 5 9 10 9 6 0 10 -7 10 -16z m-1100 -14 c0 -5 -2 -10 -4 -10
-3 0 -8 5 -11 10 -3 6 -1 10 4 10 6 0 11 -4 11 -10z m1190 0 c0 -5 -5 -10 -11
-10 -5 0 -7 5 -4 10 3 6 8 10 11 10 2 0 4 -4 4 -10z m2520 -54 c0 -3 -4 -8
-10 -11 -5 -3 -10 -1 -10 4 0 6 5 11 10 11 6 0 10 -2 10 -4z m-2440 -49 c0
-19 -1 -19 -20 -2 -21 19 -18 37 5 28 8 -3 15 -14 15 -26z m-630 19 c0 -3 -4
-8 -10 -11 -5 -3 -10 -1 -10 4 0 6 5 11 10 11 6 0 10 -2 10 -4z m140 -46 c0
-5 -4 -10 -10 -10 -5 0 -10 5 -10 10 0 6 5 10 10 10 6 0 10 -4 10 -10z m540
-70 c0 -5 -4 -10 -10 -10 -5 0 -10 5 -10 10 0 6 5 10 10 10 6 0 10 -4 10 -10z
m-300 -30 c0 -5 -5 -10 -11 -10 -5 0 -7 5 -4 10 3 6 8 10 11 10 2 0 4 -4 4
-10z m-420 -180 c0 -5 -2 -10 -4 -10 -3 0 -8 5 -11 10 -3 6 -1 10 4 10 6 0 11
-4 11 -10z m740 -255 c0 -8 -4 -15 -10 -15 -5 0 -10 7 -10 15 0 8 5 15 10 15
6 0 10 -7 10 -15z m-310 -5 c0 -5 -4 -10 -9 -10 -6 0 -13 5 -16 10 -3 6 1 10
9 10 9 0 16 -4 16 -10z m2450 -31 c0 -4 -7 -6 -15 -3 -8 4 -15 10 -15 15 0 4
7 6 15 3 8 -4 15 -10 15 -15z m-2240 -10 c0 -5 -4 -9 -10 -9 -5 0 -10 7 -10
16 0 8 5 12 10 9 6 -3 10 -10 10 -16z m-340 -3 c0 -3 -4 -8 -10 -11 -5 -3 -10
-1 -10 4 0 6 5 11 10 11 6 0 10 -2 10 -4z m560 -80 c0 -3 -4 -8 -10 -11 -5 -3
-10 -1 -10 4 0 6 5 11 10 11 6 0 10 -2 10 -4z m-290 -86 c0 -5 -5 -10 -11 -10
-5 0 -7 5 -4 10 3 6 8 10 11 10 2 0 4 -4 4 -10z m2790 -15 c0 -9 -9 -15 -21
-15 -18 0 -19 2 -9 15 7 8 16 15 21 15 5 0 9 -7 9 -15z m-2470 -34 c0 -12 -20
-25 -27 -18 -7 7 6 27 18 27 5 0 9 -4 9 -9z m1990 -11 c0 -5 -5 -10 -11 -10
-5 0 -7 5 -4 10 3 6 8 10 11 10 2 0 4 -4 4 -10z m-2530 -15 c0 -8 -2 -15 -4
-15 -2 0 -6 7 -10 15 -3 8 -1 15 4 15 6 0 10 -7 10 -15z m2546 -81 c-4 -9 -9
-15 -11 -12 -3 3 -3 13 1 22 4 9 9 15 11 12 3 -3 3 -13 -1 -22z m-1991 6 c-3
-5 -10 -10 -16 -10 -5 0 -9 5 -9 10 0 6 7 10 16 10 8 0 12 -4 9 -10z m2065
-50 c0 -5 -5 -10 -11 -10 -5 0 -7 5 -4 10 3 6 8 10 11 10 2 0 4 -4 4 -10z
m225 0 c3 -5 1 -10 -4 -10 -6 0 -11 5 -11 10 0 6 2 10 4 10 3 0 8 -4 11 -10z
m-2565 -50 c0 -5 -5 -10 -11 -10 -5 0 -7 5 -4 10 3 6 8 10 11 10 2 0 4 -4 4
-10z m320 -65 c0 -8 -9 -15 -20 -15 -20 0 -26 11 -13 23 12 13 33 7 33 -8z
m235 -85 c-5 -8 -11 -8 -17 -2 -6 6 -7 16 -3 22 5 8 11 8 17 2 6 -6 7 -16 3
-22z m-325 -75 c-7 -9 -15 -13 -17 -11 -7 7 7 26 19 26 6 0 6 -6 -2 -15z m360
-39 c0 -3 -4 -8 -10 -11 -5 -3 -10 -1 -10 4 0 6 5 11 10 11 6 0 10 -2 10 -4z
m-450 -26 c0 -5 -5 -10 -11 -10 -5 0 -7 5 -4 10 3 6 8 10 11 10 2 0 4 -4 4
-10z m429 -107 c0 -5 -4 -17 -9 -28 -8 -18 -9 -17 -9 8 -1 15 4 27 9 27 6 0
10 -3 9 -7z m135 -9 c7 -19 -2 -37 -15 -29 -12 8 -12 45 0 45 5 0 12 -7 15
-16z m1676 -4 c0 -5 -4 -10 -10 -10 -5 0 -10 5 -10 10 0 6 5 10 10 10 6 0 10
-4 10 -10z m-2700 -40 c0 -5 -5 -10 -11 -10 -5 0 -7 5 -4 10 3 6 8 10 11 10 2
0 4 -4 4 -10z m867 -6 c-3 -3 -12 -4 -19 -1 -8 3 -5 6 6 6 11 1 17 -2 13 -5z
m-157 -14 c0 -5 -4 -10 -10 -10 -5 0 -10 5 -10 10 0 6 5 10 10 10 6 0 10 -4
10 -10z m-150 -50 c0 -5 -4 -10 -10 -10 -5 0 -10 5 -10 10 0 6 5 10 10 10 6 0
10 -4 10 -10z m735 -10 c-3 -5 -10 -10 -16 -10 -5 0 -9 5 -9 10 0 6 7 10 16
10 8 0 12 -4 9 -10z m801 -47 c-11 -11 -17 4 -9 23 7 18 8 18 11 1 2 -10 1
-21 -2 -24z m-1326 17 c0 -5 -4 -10 -9 -10 -6 0 -13 5 -16 10 -3 6 1 10 9 10
9 0 16 -4 16 -10z m188 -12 c-2 -6 -10 -14 -16 -16 -7 -2 -10 2 -6 12 7 18 28
22 22 4z m400 -90 c-3 -7 -15 -14 -29 -16 -24 -4 -24 -3 -4 12 24 19 38 20 33
4z m1572 -12 c0 -3 -4 -8 -10 -11 -5 -3 -10 -1 -10 4 0 6 5 11 10 11 6 0 10
-2 10 -4z m-800 -76 c0 -21 -15 -27 -25 -10 -7 12 2 30 16 30 5 0 9 -9 9 -20z
m-840 -10 c0 -5 -4 -10 -10 -10 -5 0 -10 5 -10 10 0 6 5 10 10 10 6 0 10 -4
10 -10z m1190 -30 c0 -5 -7 -10 -15 -10 -8 0 -15 5 -15 10 0 6 7 10 15 10 8 0
15 -4 15 -10z m-115 -20 c3 -5 -1 -10 -10 -10 -9 0 -13 5 -10 10 3 6 8 10 10
10 2 0 7 -4 10 -10z m205 -25 c0 -9 -6 -12 -15 -9 -8 4 -12 10 -9 15 8 14 24
10 24 -6z m-765 -25 c-3 -5 -10 -10 -16 -10 -5 0 -9 5 -9 10 0 6 7 10 16 10 8
0 12 -4 9 -10z m-605 -45 c0 -9 -6 -12 -15 -9 -8 4 -12 10 -9 15 8 14 24 10
24 -6z m930 5 c0 -5 -4 -10 -10 -10 -5 0 -10 5 -10 10 0 6 5 10 10 10 6 0 10
-4 10 -10z m395 -90 c3 -5 -1 -10 -9 -10 -9 0 -16 5 -16 10 0 6 4 10 9 10 6 0
13 -4 16 -10z m-1094 -27 c-11 -5 -11 -7 0 -14 11 -7 10 -9 -3 -9 -18 0 -23
11 -11 23 3 4 11 7 17 6 6 0 5 -3 -3 -6z m929 -27 c0 -3 -4 -8 -10 -11 -5 -3
-10 -1 -10 4 0 6 5 11 10 11 6 0 10 -2 10 -4z m550 -6 c0 -5 -7 -10 -16 -10
-8 0 -12 5 -9 10 3 6 10 10 16 10 5 0 9 -4 9 -10z m-790 -18 c0 -14 -11 -21
-26 -15 -8 3 -11 9 -8 14 7 11 34 12 34 1z m570 -20 c0 -13 -12 -22 -22 -16
-10 6 -1 24 13 24 5 0 9 -4 9 -8z m-933 -47 c-4 -8 -11 -15 -17 -15 -14 0 -13
27 3 33 16 6 21 1 14 -18z m-527 5 c0 -5 -5 -10 -11 -10 -5 0 -7 5 -4 10 3 6
8 10 11 10 2 0 4 -4 4 -10z m640 0 c0 -5 -4 -10 -10 -10 -5 0 -10 5 -10 10 0
6 5 10 10 10 6 0 10 -4 10 -10z m960 -11 c0 -5 -4 -9 -10 -9 -5 0 -10 7 -10
16 0 8 5 12 10 9 6 -3 10 -10 10 -16z m-1780 -89 c-8 -5 -17 -7 -19 -4 -3 3 1
9 9 14 8 5 17 7 19 4 3 -3 -1 -9 -9 -14z m-130 0 c0 -5 -4 -10 -9 -10 -6 0
-13 5 -16 10 -3 6 1 10 9 10 9 0 16 -4 16 -10z m1000 -18 c0 -13 -12 -22 -22
-16 -10 6 -1 24 13 24 5 0 9 -4 9 -8z m600 4 c0 -3 -4 -8 -10 -11 -5 -3 -10
-1 -10 4 0 6 5 11 10 11 6 0 10 -2 10 -4z m-725 -16 c3 -5 -1 -10 -9 -10 -9 0
-16 5 -16 10 0 6 4 10 9 10 6 0 13 -4 16 -10z m1315 0 c0 -5 -4 -10 -10 -10
-5 0 -10 5 -10 10 0 6 5 10 10 10 6 0 10 -4 10 -10z m-942 -21 c-2 -6 -8 -10
-13 -10 -5 0 -11 4 -13 10 -2 6 4 11 13 11 9 0 15 -5 13 -11z m-522 -27 c-18
-16 -18 -16 -6 6 6 13 14 21 18 18 3 -4 -2 -14 -12 -24z m660 -9 c-10 -10 -19
5 -10 18 6 11 8 11 12 0 2 -7 1 -15 -2 -18z m-866 -24 c0 -5 -7 -9 -15 -9 -15
0 -20 12 -9 23 8 8 24 -1 24 -14z m-635 -29 c3 -5 1 -10 -4 -10 -6 0 -11 5
-11 10 0 6 2 10 4 10 3 0 8 -4 11 -10z m1045 0 c0 -5 -4 -10 -10 -10 -5 0 -10
5 -10 10 0 6 5 10 10 10 6 0 10 -4 10 -10z m180 -80 c0 -5 -4 -10 -10 -10 -5
0 -10 5 -10 10 0 6 5 10 10 10 6 0 10 -4 10 -10z m-1090 -10 c0 -5 -5 -10 -11
-10 -5 0 -7 5 -4 10 3 6 8 10 11 10 2 0 4 -4 4 -10z m428 -19 c3 -8 -1 -12 -9
-9 -7 2 -15 10 -17 17 -3 8 1 12 9 9 7 -2 15 -10 17 -17z m142 -2 c0 -5 -4 -9
-10 -9 -5 0 -10 7 -10 16 0 8 5 12 10 9 6 -3 10 -10 10 -16z m180 11 c0 -5 -4
-10 -10 -10 -5 0 -10 5 -10 10 0 6 5 10 10 10 6 0 10 -4 10 -10z m-630 -10 c0
-5 -5 -10 -11 -10 -5 0 -7 5 -4 10 3 6 8 10 11 10 2 0 4 -4 4 -10z m-75 -80
c-3 -5 -10 -10 -16 -10 -5 0 -9 5 -9 10 0 6 7 10 16 10 8 0 12 -4 9 -10z
m1225 -45 c11 -13 10 -14 -4 -9 -9 3 -16 10 -16 15 0 13 6 11 20 -6z m-1125
-5 c-3 -5 -10 -10 -16 -10 -5 0 -9 5 -9 10 0 6 7 10 16 10 8 0 12 -4 9 -10z
m347 -5 c0 -5 -5 -11 -11 -13 -6 -2 -11 4 -11 13 0 9 5 15 11 13 6 -2 11 -8
11 -13z m1048 -15 c0 -5 -4 -10 -10 -10 -5 0 -10 5 -10 10 0 6 5 10 10 10 6 0
10 -4 10 -10z m-900 -29 c0 -5 -7 -12 -16 -15 -14 -5 -15 -4 -4 9 14 17 20 19
20 6z m1010 -46 c-7 -9 -15 -13 -17 -11 -7 7 7 26 19 26 6 0 6 -6 -2 -15z
m-795 -5 c3 -5 -1 -10 -9 -10 -9 0 -16 5 -16 10 0 6 4 10 9 10 6 0 13 -4 16
-10z m-65 -91 c0 -5 -4 -9 -10 -9 -5 0 -10 7 -10 16 0 8 5 12 10 9 6 -3 10
-10 10 -16z m-513 -5 c-3 -3 -12 -4 -19 -1 -8 3 -5 6 6 6 11 1 17 -2 13 -5z
m163 -14 c0 -5 -4 -10 -10 -10 -5 0 -10 5 -10 10 0 6 5 10 10 10 6 0 10 -4 10
-10z m1280 -50 c0 -5 -7 -10 -15 -10 -8 0 -15 5 -15 10 0 6 7 10 15 10 8 0 15
-4 15 -10z m-380 -10 c0 -5 -7 -10 -16 -10 -8 0 -12 5 -9 10 3 6 10 10 16 10
5 0 9 -4 9 -10z m56 -87 c-10 -10 -19 5 -10 18 6 11 8 11 12 0 2 -7 1 -15 -2
-18z m-611 -33 c-3 -5 -11 -10 -16 -10 -6 0 -7 5 -4 10 3 6 11 10 16 10 6 0 7
-4 4 -10z m446 -143 c-13 -13 -26 -3 -16 12 3 6 11 8 17 5 6 -4 6 -10 -1 -17z
m-646 -38 c-10 -15 -25 -10 -19 6 4 8 10 12 15 9 5 -3 7 -10 4 -15z m315 17
c0 -2 -7 -9 -15 -16 -12 -10 -15 -10 -15 4 0 9 7 16 15 16 8 0 15 -2 15 -4z
m-80 -75 c0 -6 -4 -13 -10 -16 -5 -3 -10 1 -10 9 0 9 5 16 10 16 6 0 10 -4 10
-9z m210 -111 c0 -5 -7 -10 -15 -10 -8 0 -15 5 -15 10 0 6 7 10 15 10 8 0 15
-4 15 -10z m-160 -40 c0 -5 -4 -10 -10 -10 -5 0 -10 5 -10 10 0 6 5 10 10 10
6 0 10 -4 10 -10z m-450 -160 c0 -5 -4 -10 -10 -10 -5 0 -10 5 -10 10 0 6 5
10 10 10 6 0 10 -4 10 -10z"/>
<path d="M7786 11598 c-16 -78 -70 -307 -90 -383 -13 -49 -58 -229 -100 -400
-42 -170 -101 -404 -130 -520 -30 -115 -81 -322 -114 -460 l-60 -249 42 -38
c22 -20 65 -54 94 -75 135 -96 310 -228 340 -256 l32 -31 0 1217 c0 669 -2
1217 -5 1217 -3 0 -7 -10 -9 -22z m-45 -640 c-10 -11 -11 -9 -5 6 6 15 4 17
-6 11 -9 -6 -11 -4 -5 4 5 9 10 10 18 2 8 -8 7 -14 -2 -23z m-191 -654 c0 -8
-4 -12 -10 -9 -5 3 -10 10 -10 16 0 5 5 9 10 9 6 0 10 -7 10 -16z"/>
<path d="M8011 10408 c-1 -659 3 -1198 7 -1198 4 0 54 33 109 73 254 180 356
250 374 254 26 7 29 -12 -60 343 -87 348 -317 1282 -372 1515 -23 94 -45 179
-49 190 -5 11 -9 -519 -9 -1177z m39 -248 c0 -5 -7 -10 -16 -10 -8 0 -12 5 -9
10 3 6 10 10 16 10 5 0 9 -4 9 -10z"/>
<path d="M7274 9513 c-4 -16 -26 -106 -50 -201 -46 -181 -50 -207 -34 -197 5
3 143 7 307 10 165 2 299 7 300 12 2 5 -7 15 -19 21 -13 7 -59 41 -103 77 -44
36 -123 97 -175 137 -52 39 -120 93 -151 120 -31 26 -59 48 -63 48 -3 0 -9
-12 -12 -27z"/>
<path d="M8434 9452 c-84 -61 -139 -100 -346 -248 -40 -28 -74 -56 -76 -63 -4
-13 -4 -13 351 -16 141 -2 257 1 257 6 0 4 -14 68 -30 141 -17 73 -36 159 -42
191 -6 31 -14 57 -17 57 -3 0 -47 -30 -97 -68z m27 -205 c-13 -13 -26 -3 -16
12 3 6 11 8 17 5 6 -4 6 -10 -1 -17z"/>
<path d="M7788 9084 c-3 -3 -145 -6 -315 -7 l-308 -2 -62 -250 c-34 -137 -69
-279 -77 -315 -9 -36 -38 -153 -65 -260 -88 -348 -199 -793 -222 -890 -12 -52
-48 -200 -81 -329 -32 -128 -57 -235 -54 -238 5 -5 1187 -5 1192 0 5 5 5 2189
1 2194 -2 2 -17 -8 -33 -22 -26 -23 -314 -222 -549 -379 -49 -34 -92 -63 -95
-66 -3 -3 -18 -14 -35 -26 -114 -78 -4 22 130 118 55 39 134 99 176 132 42 34
128 97 190 140 63 44 116 83 119 86 3 3 22 19 43 35 22 16 43 40 48 53 9 24 8
37 -3 26z m-898 -1818 c0 -8 -4 -18 -10 -21 -5 -3 -10 3 -10 14 0 12 5 21 10
21 6 0 10 -6 10 -14z m127 -118 c-3 -8 -6 -5 -6 6 -1 11 2 17 5 13 3 -3 4 -12
1 -19z m-52 -208 c-3 -5 -10 -10 -16 -10 -5 0 -9 5 -9 10 0 6 7 10 16 10 8 0
12 -4 9 -10z m111 -126 c-6 -7 -14 -10 -18 -7 -12 7 -9 28 4 41 10 10 14 9 19
-5 3 -9 1 -23 -5 -29z"/>
<path d="M8445 9077 c-104 -4 -245 -5 -313 -2 -115 5 -122 4 -113 -12 21 -39
104 -106 486 -393 55 -41 120 -93 143 -115 24 -21 62 -52 85 -67 35 -23 38
-28 22 -34 -14 -6 -25 1 -45 24 -15 18 -30 32 -35 32 -4 0 -24 15 -44 33 -42
37 -54 45 -177 130 -51 34 -141 95 -200 136 -60 41 -140 99 -177 129 -38 30
-69 52 -70 50 -1 -1 -1 -497 1 -1100 l2 -1098 433 0 c675 -1 750 -1 753 3 2 1
-8 48 -21 102 -14 55 -47 195 -74 310 -57 242 -107 447 -120 490 -9 29 -82
322 -217 875 -37 151 -81 329 -98 395 l-31 120 -190 -8z m206 -224 c13 -16 12
-17 -3 -4 -10 7 -18 15 -18 17 0 8 8 3 21 -13z m-21 -453 c0 -5 -4 -10 -10
-10 -5 0 -10 5 -10 10 0 6 5 10 10 10 6 0 10 -4 10 -10z m130 -70 c0 -5 -7
-10 -15 -10 -8 0 -15 5 -15 10 0 6 7 10 15 10 8 0 15 -4 15 -10z m-320 -1424
c0 -2 -7 -6 -15 -10 -8 -3 -15 -1 -15 4 0 6 7 10 15 10 8 0 15 -2 15 -4z"/>
<path d="M8953 8658 c2 -13 21 -86 41 -163 19 -77 83 -336 141 -575 177 -726
276 -1131 296 -1210 11 -41 22 -87 26 -102 l5 -28 -91 0 c-84 0 -91 -2 -91
-20 0 -19 9 -19 268 -22 389 -4 1470 6 1451 13 -31 13 -410 308 -514 400 -16
14 -75 66 -130 114 -316 277 -667 626 -851 845 -175 209 -461 607 -523 729
-23 45 -36 53 -28 19z m201 -429 c-3 -5 -10 -7 -15 -3 -5 3 -7 10 -3 15 3 5
10 7 15 3 5 -3 7 -10 3 -15z m396 -477 c0 -10 -22 -32 -32 -32 -5 0 -3 9 4 20
13 20 28 27 28 12z m630 -680 c0 -11 -41 -34 -48 -28 -3 4 3 13 14 21 21 16
34 19 34 7z m-130 -132 c0 -5 -4 -10 -10 -10 -5 0 -10 5 -10 10 0 6 5 10 10
10 6 0 10 -4 10 -10z"/>
<path d="M6803 8594 c-172 -270 -435 -623 -603 -809 -314 -349 -998 -962
-1307 -1172 -46 -31 -83 -60 -83 -65 0 -4 387 -8 860 -8 853 0 860 0 860 20 0
19 -7 20 -94 20 l-93 0 7 38 c13 61 38 165 95 392 80 315 81 318 130 525 110
460 170 703 216 880 28 105 54 205 58 223 5 17 7 32 6 32 -2 0 -25 -34 -52
-76z"/>
</g>
</svg>
